<?xml version="1.0" encoding="UTF-8"?>
<svg id="Layer_1" xmlns="http://www.w3.org/2000/svg" version="1.1" viewBox="0 0 816.45 349.13">
  <!-- Generator: Adobe Illustrator 30.1.0, SVG Export Plug-In . SVG Version: 2.1.1 Build 136)  -->
  <defs>
    <style>
      .st0 {
        fill: #fff;
      }
    </style>
  </defs>
  <path class="st0" d="M772.38,188.22c-13.53-.92-27.93-1.36-48.92-1.36-2.93,32.16-4.54,64.53-5.21,110.6h-59.77c4.28-36.62,6.52-73.27,6.76-110.6-34.77,0-41.45.91-48.88,1.36l2.06-40.72h155.98l-2.02,40.72ZM541.71,297.46c2.95-43.15,6.8-84.31,6.8-149.96h60.93c-3.83,48.81-6.53,82.51-6.53,149.96h-61.2ZM536.69,187.77c-14.2-.69-30.06-.91-44.25-.91h-31.19l-1.1,14.94c20.25,0,42.06.34,62.32,0l-2.48,40.38h-61.66c-.6,18.38-1.2,36.86-1.33,55.29h-62.07c4.07-27.62,9.46-111.5,8.77-149.96h135.05l-2.03,40.27ZM325.64,297.46h61.82c-19.64-49.42-38.11-99.58-55.5-149.96h-70.2c-19.84,41.81-61.38,117.83-80.57,149.96h64.3l17.74-39.41h49.67c4.56,12.99,9.38,26.05,12.73,39.41M294.03,188l10.45,34.48h-26.19l15.74-34.48ZM180.86,187.77c-14.17-.69-30.02-.91-44.25-.91h-31.16l-1.12,14.94c20.27,0,40.45.34,60.7,0l-2.43,40.38h-61.21l-1.1,15.97c25.79,0,51.42-.66,77.16-2.02l-2.07,41.34H39.1c7.14-48.47,9.63-100.97,8.77-149.96h135.03l-2.04,40.27Z"/>
  <path class="st0" d="M73.47,66.57c.35-4.54.72-9.14.96-13.39h-22.31c-.29,11.14-.94,20.78-1.53,28.84-.51,6.94-.91,12.72-.91,17.21,0,4.79,2.24,9.59,8.06,12.94,4.97,2.91,12.54,4.77,23.44,4.77,15.24,0,23.58-3.82,28.12-8.51,4.47-4.57,5.26-9.95,5.31-13.33.28-12.29,2.04-35.82,2.5-41.92h-22.78c-.2,7.9-.73,26.46-2.65,38.45-.52,3.24-1.31,5.54-2.9,7.1-1.59,1.61-3.87,2.3-7.42,2.3s-5.76-1.36-7.22-3.66c-1.38-2.16-1.91-5.09-1.91-8.39,0-6.26.61-14.27,1.24-22.41"/>
  <path class="st0" d="M127.99,83.58c-.71,13.03-1.68,24.87-2.42,32.08h19.97c.11-11.73.59-21.02.86-27.65.13-2.73.23-4.97.31-6.71l.02-1.25.03-3.37c2.3,3.6,4,7.3,5.82,11.15,3.49,7.47,7.42,15.05,11.31,22.6.8,1.5,1.56,2.94,2.73,5.23h27.36c.25-10.47.73-20.89,1.35-31.32.62-10.32,1.41-20.71,2.32-31.17h-20.66c-.07,5.68-.2,11.31-.4,16.87-.23,6.28-.53,12.43-.92,18.41l-.1,1.25-.18,3.74c-1.71-3.17-3.22-6.42-4.72-9.71-1.97-4.44-4.01-8.88-6.1-13.31-2.71-5.71-5.48-11.5-8.37-17.26h-27.28c0,9.76-.39,20.39-.95,30.4"/>
  <path class="st0" d="M207.11,108.23c-.18,2.52-.35,5-.54,7.42h23.67c.05-27.77,1.15-42.31,2.68-62.48h-23.54c-.05,23.33-1.15,39.52-2.27,55.06"/>
  <path class="st0" d="M262.28,115.66h26.27l31.04-62.48h-23.01c-2.55,6.74-5.46,13.33-8.36,19.91-3.03,6.96-6.12,13.88-8.72,21-.81,2.11-1.66,4.23-2.54,6.34-.62-2.04-1.15-4.03-1.66-6.1-1.76-7.49-3.95-15.01-6.12-22.57-1.81-6.15-3.63-12.34-5.16-18.59h-22.9c1.42,4.1,3.03,8.75,4.64,13.33,5.71,16.36,11.38,32.72,16.53,49.15"/>
  <path class="st0" d="M373.21,67.71c2.6.08,5.17.13,7.77.28l.79-14.81h-54.06c.09,8.03-.39,19.82-1.04,31.34-.71,12.37-1.68,24.41-2.52,31.14h54.23l1.02-15.23c-3.93.21-7.6.41-12.01.53-4.97.16-10.77.26-18.67.26h-1.41l.11-1.41.48-6.94.08-1.24h26l.87-14.81c-1.58.03-3.2.11-4.87.16-3.3.1-6.56.22-9.67.22h-11.24l.1-1.42.48-6.93.08-1.23h14.47c2.85,0,5.85.04,9.03.08"/>
  <path class="st0" d="M413.08,92.73c.29-8.16.64-16.27,1.18-24.35l.09-1.24h7.24c5.56,0,11.58,0,11.58,6.41,0,2.9-1.3,4.87-3.23,6.17-2.31,1.58-5.54,2.09-8.31,2.09-.72,0-1.44-.05-2.2-.1l-.15-.03c1.45,5.44,2.83,10.92,4.15,16.47,1.41,5.85,2.71,11.66,4.03,17.51h23.33c-.93-2.63-1.88-5.28-2.82-7.94-2.14-6.05-4.32-12.09-6.2-18.29l-.32-1.09,1.01-.46c3.99-1.81,7.05-4.18,9.06-7.21,1.93-2.94,2.93-6.48,2.93-10.74,0-7.84-3.82-11.99-8.61-14.18-4.97-2.3-10.97-2.57-14.9-2.57h-36.98c0,10.45-.15,20.88-.61,31.39-.46,10.38-1.25,20.76-2.48,31.09h21.71c.1-7.63.28-15.3.52-22.93"/>
  <path class="st0" d="M504.4,67.53c1.95.46,3.83,1.02,5.63,1.69l-1.2-15.74c-2.8-.57-5.68-1.01-8.57-1.33-2.97-.32-5.94-.48-8.93-.48-8.46,0-14.36,1.86-18.28,4.69-4.83,3.42-6.72,8.28-6.72,12.67,0,9.03,7.62,14.9,13.52,19.44,4.14,3.23,7.47,5.84,7.47,8.91,0,4.26-5.96,4.26-8.57,4.26-2.95,0-6.43-.71-9.81-1.71-2.55-.71-5.08-1.55-7.24-2.35l1.5,16.97c3.01.44,6.39.95,9.77,1.35,3.76.43,7.57.73,10.89.73,8.96,0,15.1-2.02,19.13-5.05,5.05-3.77,6.88-9.13,6.88-14.03,0-7.6-7.34-13.23-13.19-17.65-4.27-3.25-7.83-5.95-7.83-8.9,0-2.28,1.73-3.37,3.78-3.91,1.69-.41,3.52-.46,4.54-.46,2.4,0,4.85.31,7.23.86"/>
  <path class="st0" d="M522.09,108.27c-.15,2.49-.38,4.98-.53,7.39h23.31c.02-27.77,1.12-42.31,2.68-62.48h-23.2c-.06,23.33-1.19,39.53-2.25,55.09"/>
  <path class="st0" d="M596.1,97.39c-3.03,2.89-7.14,3.84-11.52,3.84-.63,0-1.35-.03-2.03-.11-.64-.03-1.29-.1-2-.23l-1.14-.15.04-1.18,1.35-30.28.04-1.05,1.03-.17c.85-.15,1.69-.24,2.52-.35.83-.05,1.67-.08,2.5-.08,4.77,0,8.29,1.28,10.67,3.78,2.37,2.5,3.47,6.12,3.47,10.94,0,7.47-1.92,12.19-4.94,15.04M616.69,60.75c-4.49-4.95-11.1-7.57-19.34-7.57h-37.19c-.02,17.29-.48,30.49-1.1,40.73-.58,9.59-1.24,16.53-1.79,21.76h35.45c9.53,0,17.14-3.34,22.4-9.04,5.46-5.96,8.45-14.51,8.45-24.59,0-9.24-2.46-16.44-6.89-21.29"/>
  <path class="st0" d="M657.74,86.69l9.29-21.04,6.27,21.04h-15.56ZM693.3,85.33c-3.88-10.69-7.66-21.4-11.28-32.16h-28.09c-3.89,8.34-9.59,19.54-15.43,30.65-6.4,12.19-12.92,24.15-17.39,31.83h24.26l6.26-14.26.37-.77h24.45l.31.87v.02h.02c1.61,4.7,3.24,9.34,4.46,14.14h23.39c-3.88-10.01-7.66-20.13-11.34-30.33"/>
  <path class="st0" d="M749.89,97.39c-3.07,2.91-7.15,3.84-11.53,3.84-.66,0-1.36-.03-2.04-.11-.63-.03-1.29-.1-2.01-.23l-1.12-.15.04-1.18,1.35-30.28.04-1.05,1.02-.17c.85-.15,1.68-.24,2.54-.35.84-.05,1.64-.08,2.48-.08,4.78,0,8.31,1.28,10.69,3.78,2.34,2.5,3.48,6.12,3.48,10.94,0,7.47-1.92,12.19-4.93,15.04M770.44,60.75c-4.48-4.95-11.09-7.57-19.29-7.57h-37.2c-.05,17.29-.48,30.49-1.09,40.73-.61,9.59-1.3,16.53-1.84,21.76h35.5c9.54,0,17.12-3.34,22.4-9.04,5.45-5.96,8.42-14.51,8.42-24.59,0-9.24-2.44-16.44-6.9-21.29"/>
</svg>