<?xml version="1.0" encoding="UTF-8"?>
<svg id="Capa_1" xmlns="http://www.w3.org/2000/svg" version="1.1" viewBox="0 0 841.56 223.64">
  <!-- Generator: Adobe Illustrator 30.1.0, SVG Export Plug-In . SVG Version: 2.1.1 Build 136)  -->
  <defs>
    <style>
      .st0 {
        fill: #fff;
      }
    </style>
  </defs>
  <polygon class="st0" points="644.66 169.69 652.43 169.69 648.61 159.5 644.66 169.69"/>
  <polygon class="st0" points="532.58 169.69 540.32 169.69 536.48 159.5 532.58 169.69"/>
  <path class="st0" d="M490.03,22.25v174.28h339.3V22.25h-339.3ZM540.02,119.15l6.83,18.88,7.04-18.88h4.76l-10.06,24.99h-3.87l-9.81-24.99h5.1ZM526.51,119.15h4.43v24.99h-4.43v-24.99ZM521.95,179.22h-15.09v-25.01h4.46v20.98h10.63v4.03ZM521.95,144.14h-15.09v-24.99h4.46v20.95h10.63v4.04ZM544.22,179.22l-2.36-5.72h-10.79l-2.28,5.72h-4.98l10.88-25.01h3.84l10.73,25.01h-5.04ZM576,179.22h-5.65l-12.36-19.16h-.08v19.16h-4.43v-25.01h5.88l12.09,18.59h.09v-18.59h4.46v25.01ZM579.93,144.14h-17.17v-24.99h16.54v4.02h-12.09v6.15h11.47v4.01h-11.47v6.77h12.72v4.04ZM605.15,177.4c-3.07,1.61-6.51,2.46-10.32,2.46-1.95,0-3.71-.34-5.33-.94-1.61-.6-3.02-1.51-4.15-2.65-1.15-1.12-2.07-2.53-2.73-4.11-.67-1.62-.99-3.4-.99-5.31,0-2.05.32-3.81.99-5.47.66-1.62,1.59-3.01,2.73-4.19,1.13-1.15,2.54-2.02,4.15-2.63,1.62-.63,3.38-.95,5.33-.95s3.71.24,5.36.68c1.66.46,3.17,1.28,4.49,2.47l-3.29,3.31c-.81-.77-1.75-1.4-2.93-1.8-1.12-.43-2.32-.6-3.61-.6s-2.45.17-3.52.65c-1.03.48-1.92,1.15-2.67,1.95-.78.77-1.34,1.75-1.76,2.82-.43,1.02-.61,2.25-.61,3.51s.19,2.55.61,3.66c.42,1.14.99,2.11,1.76,2.95.75.82,1.64,1.49,2.67,1.96,1.07.46,2.24.69,3.52.69,1.12,0,2.19-.13,3.19-.33,1.03-.19,1.9-.54,2.68-.99v-5.87h-5.16v-4.04h9.59v12.8ZM631.84,170.04c0,1.49-.27,2.86-.78,4.07-.55,1.23-1.23,2.23-2.13,3.1-.91.83-1.97,1.48-3.18,1.96-1.22.45-2.55.68-3.99.68s-2.76-.23-3.98-.68c-1.21-.48-2.25-1.13-3.19-1.96-.89-.88-1.6-1.87-2.11-3.1-.49-1.21-.78-2.58-.78-4.07v-15.83h4.51v15.7c0,.56.06,1.22.24,1.9.19.68.48,1.29.98,1.85.43.58.97,1.05,1.68,1.41.72.33,1.62.53,2.66.53s1.99-.2,2.68-.53c.72-.35,1.28-.83,1.72-1.41.42-.56.74-1.16.92-1.85.22-.67.28-1.34.28-1.9v-15.7h4.47v15.83ZM656.29,179.22l-2.29-5.72h-10.84l-2.26,5.72h-5.02l10.91-25.01h3.83l10.76,25.01h-5.09ZM687.77,177.4c-3.08,1.61-6.55,2.46-10.33,2.46-1.93,0-3.67-.34-5.32-.94-1.62-.6-3.01-1.51-4.14-2.65-1.15-1.12-2.08-2.53-2.72-4.11-.67-1.62-1-3.4-1-5.31,0-2.05.32-3.81,1-5.47.64-1.62,1.58-3.01,2.72-4.19,1.13-1.15,2.52-2.02,4.14-2.63,1.65-.63,3.39-.95,5.32-.95s3.73.24,5.35.68c1.69.46,3.19,1.28,4.52,2.47l-3.28,3.31c-.85-.77-1.8-1.4-2.92-1.8-1.16-.43-2.36-.6-3.64-.6s-2.45.17-3.51.65c-1.03.48-1.93,1.15-2.7,1.95-.75.77-1.33,1.75-1.73,2.82-.43,1.02-.63,2.25-.63,3.51s.2,2.55.63,3.66c.4,1.14.98,2.11,1.73,2.95.77.82,1.67,1.49,2.7,1.96,1.06.46,2.23.69,3.51.69,1.14,0,2.22-.13,3.21-.33.99-.19,1.91-.54,2.66-.99v-5.87h-5.1v-4.04h9.54v12.8ZM711.65,179.22h-17.2v-25.01h16.55v4.04h-12.1v6.13h11.47v4.03h-11.47v6.78h12.75v4.03ZM732.29,175.39c-.47,1-1.14,1.82-1.97,2.47-.85.66-1.8,1.14-2.9,1.47-1.12.35-2.3.52-3.54.52-1.53,0-3-.25-4.42-.78-1.48-.51-2.69-1.4-3.74-2.61l3.36-3.23c.55.79,1.24,1.48,2.13,1.91.87.45,1.83.68,2.82.68.51,0,1.02-.11,1.54-.24.51-.14.98-.32,1.4-.59.44-.29.78-.69,1.04-1.09.27-.45.38-.95.38-1.5,0-.93-.28-1.63-.9-2.15-.57-.5-1.31-.89-2.2-1.25-.84-.35-1.83-.67-2.82-.97-1.04-.32-1.99-.68-2.84-1.25-.89-.53-1.65-1.23-2.21-2.14-.58-.83-.87-2.03-.87-3.52,0-1.28.26-2.4.78-3.33.56-.96,1.24-1.74,2.1-2.34.86-.63,1.84-1.12,2.94-1.43,1.09-.3,2.23-.44,3.37-.44,1.35,0,2.61.21,3.85.59,1.22.39,2.33,1.06,3.35,1.97l-3.28,3.41c-.46-.64-1.06-1.14-1.86-1.46-.8-.35-1.63-.46-2.49-.46-.55,0-1.04.02-1.53.16-.46.09-.89.3-1.29.56-.39.24-.69.61-.92,1.02-.26.4-.35.89-.35,1.43,0,.86.29,1.53.86,1.96.62.49,1.3.83,2.18,1.19.87.29,1.84.61,2.88.9,1.02.33,1.96.75,2.84,1.32.87.54,1.61,1.24,2.2,2.12.6.88.89,2.08.89,3.58,0,1.35-.25,2.49-.76,3.51Z"/>
  <g>
    <path class="st0" d="M10.15,24.06h17.01v77.15H10.15V24.06Z"/>
    <path class="st0" d="M37.87,24.06h25.52c24.85,0,45.69,10.56,45.69,38.85,0,24.96-20.39,38.31-43.4,38.31h-27.81V24.06ZM54.87,85.56h8.84c15.82,0,27.72-6,27.72-23.57,0-15.15-12.14-22.21-26.5-22.21h-10.05v45.78Z"/>
    <path class="st0" d="M117.32,24.06h17.01v77.15h-17.01V24.06Z"/>
    <path class="st0" d="M184.25,22.11c24.1,0,41.64,15.78,41.64,40.55s-17.54,40.58-41.64,40.58-41.67-15.81-41.67-40.58,17.57-40.55,41.67-40.55ZM184.25,87.53c14.49,0,23.96-10.46,23.96-24.87s-9.47-24.87-23.96-24.87-24,10.47-24,24.87,9.48,24.87,24,24.87Z"/>
    <path class="st0" d="M234.15,24.06h25.75l17.75,50.36h.2l17.88-50.36h25.65v77.15h-17.01v-59.17h-.21l-20.27,59.17h-12.99l-19.51-59.17h-.21v59.17h-17.02V24.06Z"/>
    <path class="st0" d="M360.56,24.06h14.05l33.59,77.15h-19.18l-6.65-16.31h-30l-6.41,16.31h-18.78l33.39-77.15ZM367.09,46.53l-9.38,24h18.86l-9.48-24Z"/>
    <path class="st0" d="M460.39,42.92c-2.71-3.44-8.14-5.13-12.32-5.13-4.79,0-11.42,2.18-11.42,7.98,0,14.07,35.53,5,35.53,32.05,0,17.24-13.84,25.42-29.77,25.42-9.92,0-18.65-2.98-25.93-9.73l12.09-13.31c3.49,4.62,9.16,7.33,14.84,7.33s11.75-2.63,11.75-8.07c0-14.19-36.18-6.57-36.18-32.28,0-16.47,14.28-25.07,29.44-25.07,8.73,0,17.12,2.24,23.65,8.07l-11.68,12.74Z"/>
    <path class="st0" d="M174.77,119.15h52.42v15.69h-35.43v14.39h33.48v15.64h-33.48v15.74h37.39v15.69h-54.38v-77.13Z"/>
    <path class="st0" d="M270.77,119.15h14.07l33.6,77.13h-19.21l-6.64-16.34h-30.01l-6.41,16.34h-18.76l33.36-77.13ZM277.31,141.57l-9.36,23.97h18.88l-9.52-23.97Z"/>
    <path class="st0" d="M326.68,119.15h51.79v15.69h-34.78v15.7h32.16v15.64h-32.16v30.1h-17.01v-77.13Z"/>
    <path class="st0" d="M386.72,119.15h17.03v77.13h-17.03v-77.13Z"/>
    <path class="st0" d="M434.02,134.16h-22.06v-15.01h61.1v15.01h-22.06v62.13h-16.98v-62.13Z"/>
  </g>
</svg>