<?xml version="1.0" encoding="UTF-8"?>
<svg xmlns="http://www.w3.org/2000/svg" viewBox="0 0 64 64">
  <defs>
    <linearGradient id="home-base" x1="0%" y1="0%" x2="100%" y2="100%">
      <stop offset="0%" stop-color="#93c5fd"/>
      <stop offset="100%" stop-color="#2563eb"/>
    </linearGradient>
    <linearGradient id="home-roof" x1="0%" y1="0%" x2="100%" y2="100%">
      <stop offset="0%" stop-color="#fb7185"/>
      <stop offset="100%" stop-color="#be123c"/>
    </linearGradient>
  </defs>
  <ellipse cx="32" cy="56" rx="18" ry="5" fill="#000000" opacity="0.14"/>
  <path d="M14 33l18-15 18 15v15a4 4 0 0 1-4 4H18a4 4 0 0 1-4-4z" fill="url(#home-base)"/>
  <path d="M10 33l22-19 22 19-3.5 4-18.5-16-18.5 16z" fill="url(#home-roof)"/>
  <rect x="28" y="36" width="8" height="16" rx="2" fill="#1e3a8a"/>
  <rect x="19.5" y="36" width="6.5" height="6.5" rx="1.2" fill="#e0f2fe"/>
  <rect x="38" y="36" width="6.5" height="6.5" rx="1.2" fill="#e0f2fe"/>
  <ellipse cx="25" cy="25.5" rx="6" ry="2.8" fill="#ffffff" opacity="0.28"/>
</svg>
